<svg xmlns="http://www.w3.org/2000/svg" viewBox="0 0 80 64" role="img" aria-label="BrightPlay mascot — placeholder">
  <title>BrightPlay mascot (placeholder)</title>
  <g fill="none" stroke="currentColor" stroke-width="2.4" stroke-linecap="round" stroke-linejoin="round">
    <!-- left hemisphere -->
    <path d="M40 12c-3-3-9-3-12 0-4-1-9 2-9 7-3 1-6 4-6 9 0 4 2 7 5 8-1 4 3 8 7 8 2 3 6 4 10 2 1 2 3 3 5 3z"/>
    <!-- right hemisphere -->
    <path d="M40 12c3-3 9-3 12 0 4-1 9 2 9 7 3 1 6 4 6 9 0 4-2 7-5 8 1 4-3 8-7 8-2 3-6 4-10 2-1 2-3 3-5 3z"/>
    <!-- glasses -->
    <circle cx="30" cy="32" r="4.2"/>
    <circle cx="50" cy="32" r="4.2"/>
    <path d="M34.2 32h11.6"/>
    <!-- arms (waving) -->
    <path d="M13 32c-3 1-5 4-5 8"/>
    <path d="M67 32c3 1 5 4 5 8"/>
  </g>
</svg>
